<svg width="24" height="24" viewBox="0 0 24 24" fill="none" xmlns="http://www.w3.org/2000/svg">
  <path d="M6 2.75H14.25L19 7.5V20C19 21.1046 18.1046 22 17 22H6C4.89543 22 4 21.1046 4 20V4.75C4 3.64543 4.89543 2.75 6 2.75Z" stroke="currentColor" stroke-width="1.5" stroke-linejoin="round"/>
  <path d="M14 2.75V7.75H19" stroke="currentColor" stroke-width="1.5" stroke-linejoin="round"/>
  <path d="M7 13C8.35 11.0833 10.0167 10.125 12 10.125C13.9833 10.125 15.65 11.0833 17 13C15.65 14.9167 13.9833 15.875 12 15.875C10.0167 15.875 8.35 14.9167 7 13Z" stroke="currentColor" stroke-width="1.5" stroke-linecap="round" stroke-linejoin="round"/>
  <circle cx="12" cy="13" r="1.5" fill="currentColor"/>
</svg>
